<svg width="135" height="35" viewBox="0 0 135 35" fill="none" xmlns="http://www.w3.org/2000/svg">
<path fill-rule="evenodd" clip-rule="evenodd" d="M119.068 1.11877V1.11816H119.445V1.12215C123.584 1.19661 127.352 2.50105 130.117 4.8422C132.973 7.25973 134.738 10.7661 134.738 15.0944V18.2929C134.738 18.3918 134.737 18.4902 134.736 18.5881C134.689 24.1059 132.957 27.9724 130.123 30.4602C127.343 32.8999 123.564 33.9608 119.445 34.0213V34.0238H119.179L119.068 34.024H118.065H118.002V34.0246C117.945 34.0246 117.887 34.0244 117.829 34.024H117.626V34.0219C113.506 33.9613 109.727 32.9002 106.947 30.4525C104.074 27.9217 102.333 23.9657 102.333 18.2929V15.0944C102.333 15.0268 102.334 14.9593 102.335 14.8921C102.389 10.6568 104.143 7.22196 106.954 4.8422C109.803 2.43035 113.716 1.11877 118.002 1.11877V1.11887L118.065 1.11877H119.068ZM107.515 5.49727C110.098 3.31689 113.653 2.06717 117.626 1.98131V2.0387H118.065H119.068C123.185 2.0387 126.892 3.2985 129.562 5.55902C132.226 7.81386 133.879 11.0809 133.879 15.1565V18.3551C133.879 18.4311 133.879 18.5068 133.878 18.5822C133.82 23.914 132.155 27.5195 129.55 29.8001C126.888 32.1303 123.179 33.135 119.009 33.1041L119.006 33.1041H118.002C113.864 33.1041 110.169 32.0845 107.514 29.7535C104.869 27.4313 103.191 23.7516 103.191 18.2929V15.0944C103.191 14.8397 103.198 14.5881 103.211 14.3398C103.402 10.6144 105.011 7.6111 107.515 5.49727ZM124.086 11.7698C124.776 12.3969 125.152 13.2123 125.215 14.0903C125.34 15.1565 125.465 20.2365 125.152 21.4281C124.713 22.9333 123.709 23.874 122.141 24.1249C120.95 24.313 115.682 24.313 114.616 24.0622C113.048 23.6859 112.107 22.6824 111.856 21.1145C111.668 19.9856 111.605 14.592 111.919 13.4631C112.358 11.9579 113.361 11.0799 114.866 10.829C116.246 10.5782 120.009 10.6409 121.577 10.7663C122.518 10.829 123.396 11.0799 124.086 11.7698ZM121.765 22.9333C123.02 22.8079 123.772 22.0553 123.96 20.8636C124.148 19.672 124.148 15.3446 124.023 14.153C123.898 12.8987 123.145 12.1461 121.953 11.9579C120.762 11.8325 116.434 11.8325 115.243 11.9579C114.051 12.0834 113.298 12.836 113.11 14.0276C112.922 15.2819 112.985 19.9856 113.11 20.9264C113.236 21.9298 113.8 22.557 114.741 22.8079C115.744 23.1214 120.699 23.0587 121.765 22.9333ZM114.992 17.477C114.992 15.5328 116.56 13.9648 118.504 13.9648C120.448 13.9648 122.016 15.5328 122.016 17.477C122.016 19.4212 120.448 20.9891 118.504 20.9891C116.56 20.9891 114.992 19.4212 114.992 17.477ZM116.246 17.477C116.246 18.7313 117.25 19.7348 118.504 19.7348C119.758 19.7348 120.762 18.7313 120.762 17.477C120.762 16.2226 119.758 15.2192 118.504 15.2192C117.25 15.2192 116.246 16.2226 116.246 17.477ZM122.141 14.6547C122.581 14.6547 122.957 14.2784 122.957 13.8394C122.957 13.4004 122.643 13.0241 122.141 13.0241C121.702 13.0241 121.326 13.4004 121.326 13.8394C121.326 14.2784 121.702 14.6547 122.141 14.6547Z" fill="white"/>
<path fill-rule="evenodd" clip-rule="evenodd" d="M66.7179 1.97608H66.2789V1.11829H66.7179H67.7214C71.987 1.11829 75.9122 2.16827 78.7759 4.6821C81.6496 7.20476 83.3904 11.1451 83.3904 16.7873V19.9858C83.3904 24.3141 81.6257 27.8205 78.7701 30.238C75.9212 32.6498 72.0081 33.9614 67.7214 33.9614H66.7179H66.2789V33.1036H66.7179H67.7214C71.8387 33.1036 75.5457 31.8438 78.2158 29.5833C80.8792 27.3285 82.5326 24.0614 82.5326 19.9858V16.7873C82.5326 11.3286 80.8553 7.64893 78.21 5.32675C75.5546 2.99574 71.8598 1.97608 67.7214 1.97608H66.7179ZM67.9101 19.045C67.9101 17.9788 68.0983 16.9753 69.4153 16.9753C70.6696 16.9753 70.6696 18.1669 70.6069 18.9822V22.8707H73.0529V18.4805C73.0529 16.3482 72.6138 14.7175 70.1052 14.7175C68.9136 14.7175 68.0983 15.4074 67.7847 16.0346V14.9684H65.4015V22.9961H67.9101V19.045ZM63.8962 14.9686H61.3876V22.9336H63.8962V14.9686ZM64.0842 12.4597C64.0842 11.6444 63.457 11.0172 62.6417 11.0172C61.8264 11.0172 61.1992 11.6444 61.1992 12.4597C61.1992 13.275 61.8264 13.9022 62.6417 13.9022C63.457 13.9022 64.0842 13.275 64.0842 12.4597Z" fill="white"/>
<path fill-rule="evenodd" clip-rule="evenodd" d="M66.3105 33.1041H65.8715H64.8681C60.7297 33.1041 57.0349 32.0845 54.3795 29.7535C51.7342 27.4313 50.0569 23.7516 50.0569 18.2929V15.0944C50.0569 11.0188 51.7102 7.75172 54.3737 5.49689C57.0438 3.23636 60.7508 1.97657 64.8681 1.97657H65.8715H66.3105V1.11877H65.8715H64.8681C60.5814 1.11877 56.6683 2.43035 53.8194 4.8422C50.9638 7.25973 49.1991 10.7661 49.1991 15.0944V18.2929C49.1991 23.9351 50.9399 27.8754 53.8136 30.3981C56.6772 32.9119 60.6025 33.9619 64.8681 33.9619H65.8715H66.3105V33.1041Z" fill="white"/>
<path fill-rule="evenodd" clip-rule="evenodd" d="M17.0591 0.000610352V0H17.4432V0.00406141C21.6628 0.0800779 25.5036 1.40991 28.3221 3.79604C31.2326 6.26002 33.0313 9.83368 33.0313 14.2456V17.5077C33.0313 17.5844 33.031 17.6609 33.0304 17.737C32.9966 23.401 31.2279 27.3646 28.3275 29.9107C25.4952 32.397 21.6433 33.4787 17.4432 33.5404V33.5429H17.2016C17.1541 33.5431 17.1065 33.5432 17.0589 33.5432H16.0355H15.972V33.5436C15.9255 33.5436 15.8792 33.5435 15.8329 33.5432H15.5877V33.5408C11.3875 33.4791 7.53533 32.3972 4.70281 29.9026C1.77428 27.3235 0 23.2914 0 17.5077V14.2456C0 14.1766 0.000439151 14.1079 0.00131486 14.0394C0.0564812 9.72227 1.84416 6.22152 4.70915 3.79604C7.6129 1.33775 11.6017 0.000610352 15.972 0.000610352V0.000704524L16.0359 0.000610352H17.0591ZM5.27094 4.45112C7.90689 2.22587 11.5346 0.950769 15.5877 0.863234V0.922006H16.0355H17.0589C21.2597 0.922006 25.0424 2.20736 27.7674 4.51433C30.4857 6.81561 32.1731 10.15 32.1731 14.3092V17.5713C32.1731 17.6248 32.1729 17.6782 32.1726 17.7314C32.1275 23.2102 30.4255 26.912 27.7545 29.25C25.0375 31.6284 21.2522 32.6534 16.9985 32.6219L16.9954 32.6218H15.972C11.75 32.6218 7.97948 31.5816 5.26923 29.2024C2.56904 26.8321 0.857797 23.0767 0.857797 17.5077V14.2456C0.857797 13.8556 0.872626 13.473 0.90175 13.0977C1.18328 9.47038 2.80059 6.53657 5.27094 4.45112ZM20.4491 11.9423V9.51166C20.3212 9.47968 20.1933 9.46369 20.0654 9.44769C19.9374 9.4317 19.8095 9.41571 19.6816 9.38373H18.2744C17.5068 9.44769 16.8032 9.57562 16.2276 10.0234C15.524 10.5351 15.1402 11.2387 15.0123 12.0702C14.9483 12.39 14.9483 12.7738 14.9483 13.0936V13.0936V14.6927V14.8846H12.6456V17.571H14.9483V24.4151H17.7627V17.635H20.0654C20.1293 16.7395 20.2572 15.8441 20.3852 14.9486L20.3852 14.9485H19.8735H17.6987V13.0296C17.7627 12.1981 18.2104 11.9423 18.8501 11.9423H20.2573H20.4491Z" fill="white"/>
</svg>
