<svg width="38" height="38" viewBox="0 0 38 38" fill="none" xmlns="http://www.w3.org/2000/svg">
<path fill-rule="evenodd" clip-rule="evenodd" d="M27.5934 23.8186C28.1875 24.402 28.1961 25.3566 27.6126 25.9507L20.0742 33.6262C19.7907 33.9148 19.4031 34.0774 18.9985 34.0774C18.5939 34.0774 18.2063 33.9148 17.9229 33.6262L10.3844 25.9507C9.80094 25.3566 9.80954 24.402 10.4036 23.8186C10.9977 23.2351 11.9523 23.2437 12.5357 23.8378L17.4908 28.883L17.4908 5.43128C17.4908 4.5986 18.1658 3.92358 18.9985 3.92358C19.8312 3.92358 20.5062 4.5986 20.5062 5.43128L20.5062 28.883L25.4613 23.8378C26.0448 23.2437 26.9994 23.2351 27.5934 23.8186Z" fill="white"/>
</svg>
